REM DIRINDEX 1\2,1\3,1\4
REM DIRNAME folder01,folder02,folder03,folder04
TITLE ""
FILE "012 012_TOEFL_3900.mp3" MP3
  TRACK 01 AUDIO
    TITLE "2:cjc151_0489"
    INDEX 01 00:00:00
  TRACK 02 AUDIO
    TITLE "0:"
    INDEX 01 00:03:29
  TRACK 03 AUDIO
    TITLE "3:cjc151_0490"
    INDEX 01 00:05:10
  TRACK 04 AUDIO
    TITLE "0:"
    INDEX 01 00:08:36
  TRACK 05 AUDIO
    TITLE "2:cjc151_0491"
    INDEX 01 00:10:23
  TRACK 06 AUDIO
    TITLE "0:"
    INDEX 01 00:11:23
  TRACK 07 AUDIO
    TITLE "3:cjc151_0492"
    INDEX 01 00:13:04
  TRACK 08 AUDIO
    TITLE "0:"
    INDEX 01 00:17:04
  TRACK 09 AUDIO
    TITLE "2:cjc151_0493"
    INDEX 01 00:18:58
  TRACK 10 AUDIO
    TITLE "0:"
    INDEX 01 00:19:65
  TRACK 11 AUDIO
    TITLE "3:cjc151_0494"
    INDEX 01 00:21:43
  TRACK 12 AUDIO
    TITLE "0:"
    INDEX 01 00:26:62
  TRACK 13 AUDIO
    TITLE "2:cjc151_0495"
    INDEX 01 00:28:41
  TRACK 14 AUDIO
    TITLE "0:"
    INDEX 01 00:29:46
  TRACK 15 AUDIO
    TITLE "3:cjc151_0496"
    INDEX 01 00:31:26
  TRACK 16 AUDIO
    TITLE "0:"
    INDEX 01 00:36:27
  TRACK 17 AUDIO
    TITLE "2:cjc151_0497"
    INDEX 01 00:38:06
  TRACK 18 AUDIO
    TITLE "0:"
    INDEX 01 00:39:09
  TRACK 19 AUDIO
    TITLE "3:cjc151_0498"
    INDEX 01 00:40:64
  TRACK 20 AUDIO
    TITLE "0:"
    INDEX 01 00:44:56
  TRACK 21 AUDIO
    TITLE "2:cjc151_0499"
    INDEX 01 00:46:33
  TRACK 22 AUDIO
    TITLE "0:"
    INDEX 01 00:47:30
  TRACK 23 AUDIO
    TITLE "3:cjc151_0500"
    INDEX 01 00:49:10
  TRACK 24 AUDIO
    TITLE "0:"
    INDEX 01 00:53:15
  TRACK 25 AUDIO
    TITLE "2:cjc151_0501"
    INDEX 01 00:54:72
  TRACK 26 AUDIO
    TITLE "0:"
    INDEX 01 00:56:10
  TRACK 27 AUDIO
    TITLE "3:cjc151_0502"
    INDEX 01 00:57:64
  TRACK 28 AUDIO
    TITLE "0:"
    INDEX 01 01:01:44
  TRACK 29 AUDIO
    TITLE "2:cjc151_0503"
    INDEX 01 01:03:26
  TRACK 30 AUDIO
    TITLE "0:"
    INDEX 01 01:04:47
  TRACK 31 AUDIO
    TITLE "3:cjc151_0504"
    INDEX 01 01:06:26
  TRACK 32 AUDIO
    TITLE "0:"
    INDEX 01 01:09:50
  TRACK 33 AUDIO
    TITLE "2:cjc151_0505"
    INDEX 01 01:11:37
  TRACK 34 AUDIO
    TITLE "0:"
    INDEX 01 01:12:36
  TRACK 35 AUDIO
    TITLE "3:cjc151_0506"
    INDEX 01 01:14:16
  TRACK 36 AUDIO
    TITLE "0:"
    INDEX 01 01:18:60
  TRACK 37 AUDIO
    TITLE "2:cjc151_0507"
    INDEX 01 01:20:40
  TRACK 38 AUDIO
    TITLE "0:"
    INDEX 01 01:21:53
  TRACK 39 AUDIO
    TITLE "3:cjc151_0508"
    INDEX 01 01:23:36
  TRACK 40 AUDIO
    TITLE "0:"
    INDEX 01 01:27:55
  TRACK 41 AUDIO
    TITLE "2:cjc151_0509"
    INDEX 01 01:29:35
  TRACK 42 AUDIO
    TITLE "0:"
    INDEX 01 01:30:44
  TRACK 43 AUDIO
    TITLE "3:cjc151_0510"
    INDEX 01 01:32:23
  TRACK 44 AUDIO
    TITLE "0:"
    INDEX 01 01:35:63
  TRACK 45 AUDIO
    TITLE "2:cjc151_0511"
    INDEX 01 01:37:42
  TRACK 46 AUDIO
    TITLE "0:"
    INDEX 01 01:38:63
  TRACK 47 AUDIO
    TITLE "3:cjc151_0512"
    INDEX 01 01:40:42
  TRACK 48 AUDIO
    TITLE "0:"
    INDEX 01 01:45:10
  TRACK 49 AUDIO
    TITLE "2:cjc151_0513"
    INDEX 01 01:46:66
  TRACK 50 AUDIO
    TITLE "0:"
    INDEX 01 01:47:58
  TRACK 51 AUDIO
    TITLE "3:cjc151_0514"
    INDEX 01 01:49:37
  TRACK 52 AUDIO
    TITLE "0:"
    INDEX 01 01:52:40
  TRACK 53 AUDIO
    TITLE "2:cjc151_0515"
    INDEX 01 01:54:23
  TRACK 54 AUDIO
    TITLE "0:"
    INDEX 01 01:55:22
  TRACK 55 AUDIO
    TITLE "3:cjc151_0516"
    INDEX 01 01:57:04
  TRACK 56 AUDIO
    TITLE "0:"
    INDEX 01 02:00:63
  TRACK 57 AUDIO
    TITLE "2:cjc151_0517"
    INDEX 01 02:02:40
  TRACK 58 AUDIO
    TITLE "0:"
    INDEX 01 02:03:73
  TRACK 59 AUDIO
    TITLE "3:cjc151_0518"
    INDEX 01 02:05:50
  TRACK 60 AUDIO
    TITLE "0:"
    INDEX 01 02:10:08
  TRACK 61 AUDIO
    TITLE "2:cjc151_0519"
    INDEX 01 02:11:63
  TRACK 62 AUDIO
    TITLE "0:"
    INDEX 01 02:13:09
  TRACK 63 AUDIO
    TITLE "3:cjc151_0520"
    INDEX 01 02:14:61
  TRACK 64 AUDIO
    TITLE "0:"
    INDEX 01 02:18:74
  TRACK 65 AUDIO
    TITLE "2:cjc151_0521"
    INDEX 01 02:20:60
  TRACK 66 AUDIO
    TITLE "0:"
    INDEX 01 02:21:65
  TRACK 67 AUDIO
    TITLE "3:cjc151_0522"
    INDEX 01 02:23:44
  TRACK 68 AUDIO
    TITLE "0:"
    INDEX 01 02:26:31
  TRACK 69 AUDIO
    TITLE "2:cjc151_0523"
    INDEX 01 02:28:10
  TRACK 70 AUDIO
    TITLE "0:"
    INDEX 01 02:29:49
  TRACK 71 AUDIO
    TITLE "3:cjc151_0524"
    INDEX 01 02:31:28
  TRACK 72 AUDIO
    TITLE "0:"
    INDEX 01 02:34:71
  TRACK 73 AUDIO
    TITLE "2:cjc151_0525"
    INDEX 01 02:36:53
  TRACK 74 AUDIO
    TITLE "0:"
    INDEX 01 02:37:54
  TRACK 75 AUDIO
    TITLE "3:cjc151_0526"
    INDEX 01 02:39:33
  TRACK 76 AUDIO
    TITLE "0:"
    INDEX 01 02:42:63
  TRACK 77 AUDIO
    TITLE "2:cjc151_0527"
    INDEX 01 02:44:42
  TRACK 78 AUDIO
    TITLE "0:"
    INDEX 01 02:45:46
  TRACK 79 AUDIO
    TITLE "3:cjc151_0528"
    INDEX 01 02:47:23
  TRACK 80 AUDIO
    TITLE "0:"
    INDEX 01 02:51:54
  TRACK 81 AUDIO
    TITLE "2:cjc151_0529"
    INDEX 01 02:53:33
  TRACK 82 AUDIO
    TITLE "0:"
    INDEX 01 02:54:43
  TRACK 83 AUDIO
    TITLE "3:cjc151_0530"
    INDEX 01 02:56:20
  TRACK 84 AUDIO
    TITLE "0:"
    INDEX 01 02:59:22
  TRACK 85 AUDIO
    TITLE "2:cjc151_0531"
    INDEX 01 03:01:06
  TRACK 86 AUDIO
    TITLE "0:"
    INDEX 01 03:02:30
  TRACK 87 AUDIO
    TITLE "3:cjc151_0532"
    INDEX 01 03:04:12
  TRACK 88 AUDIO
    TITLE "0:"
    INDEX 01 03:08:17
